<!DOCTYPE svg PUBLIC "-//W3C//DTD SVG 1.1//EN" "http://www.w3.org/Graphics/SVG/1.1/DTD/svg11.dtd">
<!-- Uploaded to: SVG Repo, www.svgrepo.com, Transformed by: SVG Repo Mixer Tools -->
<svg version="1.1" id="Layer_1" xmlns="http://www.w3.org/2000/svg" xmlns:xlink="http://www.w3.org/1999/xlink" viewBox="0 0 495 495" xml:space="preserve" width="64px" height="64px" fill="#000000">
<g id="SVGRepo_bgCarrier" stroke-width="0"/>
<g id="SVGRepo_tracerCarrier" stroke-linecap="round" stroke-linejoin="round"/>
<g id="SVGRepo_iconCarrier"> <g> <rect x="142.199" style="fill:#BDDBFF;" width="40" height="92.546"/> <rect x="227.5" style="fill:#BDDBFF;" width="40" height="92.546"/> <rect x="312.801" style="fill:#BDDBFF;" width="40" height="92.546"/> <rect x="142.199" y="402.454" style="fill:#9BC9FF;" width="40" height="92.546"/> <rect x="227.5" y="402.454" style="fill:#9BC9FF;" width="40" height="92.546"/> <rect x="312.801" y="402.454" style="fill:#9BC9FF;" width="40" height="92.546"/> <rect x="402.454" y="141.944" style="fill:#9BC9FF;" width="92.546" height="40"/> <rect x="402.454" y="227.246" style="fill:#9BC9FF;" width="92.546" height="40"/> <rect x="402.454" y="312.546" style="fill:#9BC9FF;" width="92.546" height="40"/> <rect y="141.944" style="fill:#BDDBFF;" width="92.546" height="40"/> <rect y="227.246" style="fill:#BDDBFF;" width="92.546" height="40"/> <rect y="312.546" style="fill:#BDDBFF;" width="92.546" height="40"/> <polygon style="fill:#2488FF;" points="247.5,326.065 168.936,326.065 168.936,168.935 247.5,168.935 247.5,92.546 92.546,92.546 92.546,402.454 247.5,402.454 "/> <polygon style="fill:#005ECE;" points="402.454,92.546 247.5,92.546 247.5,168.935 326.064,168.935 326.064,326.065 247.5,326.065 247.5,402.454 402.454,402.454 "/> <rect x="168.936" y="168.935" style="fill:#FFDA44;" width="78.564" height="157.13"/> <rect x="247.5" y="168.935" style="fill:#FFCD00;" width="78.564" height="157.13"/> </g> </g>
</svg>